<svg xmlns="http://www.w3.org/2000/svg"><title>CareShare interface icon set</title><defs>
<symbol id="meal" viewBox="0 0 24 24"><path d="M4 3v5a3 3 0 0 0 6 0V3M7 3v18M17 3c-3 3-3 8 0 9h3V3h-3ZM20 12v9"/></symbol>
<symbol id="ride" viewBox="0 0 24 24"><path d="m5 8 2-5h10l2 5M3 9h18v10H3ZM6 19v2M18 19v2M6 13h2M16 13h2"/></symbol>
<symbol id="people" viewBox="0 0 24 24"><circle cx="9" cy="7" r="3"/><path d="M3 21v-3a6 6 0 0 1 12 0v3M16 4a3 3 0 0 1 0 6M18 13a5 5 0 0 1 3 5v3"/></symbol>
<symbol id="home" viewBox="0 0 24 24"><path d="m3 10 9-7 9 7M5 9v12h14V9M9 21v-7h6v7"/></symbol>
<symbol id="wallet" viewBox="0 0 24 24"><path d="M20 7H4a2 2 0 0 1 0-4h14v4M2 5v14a2 2 0 0 0 2 2h16V7M20 11h-6v6h6"/><circle cx="16.5" cy="14" r=".5"/></symbol>
<symbol id="clock" viewBox="0 0 24 24"><circle cx="12" cy="12" r="9"/><path d="M12 7v5l3 2"/></symbol>
<symbol id="check" viewBox="0 0 24 24"><path d="m5 12 4 4L19 6"/></symbol>
<symbol id="arrow" viewBox="0 0 24 24"><path d="M4 12h16m-6-6 6 6-6 6"/></symbol>
<symbol id="help" viewBox="0 0 24 24"><circle cx="12" cy="12" r="9"/><path d="M9 8a3 3 0 1 1 5 3c-2 1-2 2-2 3M12 17h.01"/></symbol>
</defs></svg>
